<?xml version="1.0" standalone="no"?>
<!DOCTYPE svg PUBLIC "-//W3C//DTD SVG 20010904//EN"
 "http://www.w3.org/TR/2001/REC-SVG-20010904/DTD/svg10.dtd">
<svg version="1.0" xmlns="http://www.w3.org/2000/svg"
 width="347.000000pt" height="347.000000pt" viewBox="0 0 347.000000 347.000000"
 preserveAspectRatio="xMidYMid meet">
<metadata>
Created by potrace 1.14, written by Peter Selinger 2001-2017
</metadata>
<g transform="translate(0.000000,347.000000) scale(0.100000,-0.100000)"
fill="#000000" stroke="none">
<path d="M1540 3155 c-233 -32 -484 -126 -663 -247 l-61 -42 -191 27 c-371 53
-562 28 -607 -78 -8 -19 -13 -71 -12 -140 2 -163 55 -345 180 -617 50 -108 54
-122 54 -191 0 -103 17 -264 40 -374 55 -265 187 -520 369 -715 l82 -87 -50
-83 c-43 -73 -105 -208 -126 -275 -6 -23 -5 -23 93 -23 l99 0 7 50 c11 81 15
85 46 41 16 -21 44 -51 63 -65 l34 -26 845 0 845 0 42 46 c67 72 86 138 67
234 -5 26 -4 31 4 18 13 -21 57 -188 66 -250 l6 -48 99 0 98 0 -29 79 c-34 93
-81 189 -121 248 -16 23 -29 45 -29 49 0 4 36 44 79 89 200 208 326 441 382
705 25 120 31 363 11 463 l-11 58 73 187 c87 221 110 292 131 390 39 188 6
268 -132 323 -53 21 -72 23 -213 22 -118 -1 -187 -7 -290 -26 l-135 -25 -70
46 c-303 198 -708 287 -1075 237z m491 -315 c194 -37 355 -102 509 -204 187
-125 323 -278 411 -461 80 -168 94 -231 94 -435 0 -204 -14 -267 -94 -435 -88
-183 -224 -336 -411 -461 -155 -103 -313 -166 -515 -206 -142 -29 -393 -31
-530 -4 -515 98 -894 420 -1017 864 -31 112 -31 372 0 484 105 381 404 679
816 813 93 30 231 59 331 69 87 9 304 -4 406 -24z"/>
<path d="M1052 2102 c-61 -20 -119 -63 -133 -99 -36 -95 120 -194 285 -181 74
6 164 44 201 84 34 36 34 92 0 132 -59 70 -237 103 -353 64z m238 -51 c7 -15
5 -25 -8 -42 -33 -40 -92 -7 -77 42 9 27 70 26 85 0z"/>
<path d="M2227 2109 c-97 -23 -157 -76 -157 -139 0 -48 32 -82 108 -118 49
-23 70 -27 152 -27 85 0 101 3 155 30 111 56 132 127 55 196 -65 59 -201 85
-313 58z m217 -45 c26 -10 20 -53 -10 -66 -41 -19 -76 15 -60 58 6 14 42 19
70 8z"/>
<path d="M1670 1951 c-20 -4 -41 -11 -48 -15 -30 -18 -1 -97 70 -187 21 -28
28 -48 28 -80 -1 -98 -54 -159 -247 -282 -104 -67 -128 -87 -103 -87 5 0 83
43 172 96 90 53 172 101 184 106 18 8 53 -8 208 -96 103 -58 192 -106 197
-106 25 0 0 20 -82 65 -113 63 -227 150 -252 193 -10 17 -21 59 -24 93 -5 52
-3 62 14 74 25 18 100 132 108 165 10 42 -18 58 -110 64 -44 3 -96 2 -115 -3z"/>
</g>
</svg>
